<?xml version="1.0" encoding="utf-8"?>
<!-- Generator: Adobe Illustrator 18.0.0, SVG Export Plug-In . SVG Version: 6.00 Build 0)  -->
<!DOCTYPE svg PUBLIC "-//W3C//DTD SVG 1.1//EN" "http://www.w3.org/Graphics/SVG/1.1/DTD/svg11.dtd">
<svg version="1.1" id="Layer_1" xmlns="http://www.w3.org/2000/svg" xmlns:xlink="http://www.w3.org/1999/xlink" x="0px" y="0px"
	 viewBox="0 0 24 24" enable-background="new 0 0 24 24" xml:space="preserve">
<path fill="#477874" d="M11.5,12.4c-2.1,0-3.8-1.7-3.8-3.9c0-2.1,1.7-3.9,3.8-3.9s3.8,1.7,3.8,3.9C15.3,10.6,13.6,12.4,11.5,12.4
	 M11.5,0C6.8,0,3,3.8,3,8.5c0,4.5,3.8,10.2,6.4,13c1,1,2.1,2.5,2.1,2.5s1.2-1.4,2.2-2.5c2.6-2.7,6.3-8.1,6.3-13
	C20,3.8,16.2,0,11.5,0"/>
</svg>
