<?xml version="1.0" encoding="utf-8"?>
<!-- Generator: Adobe Illustrator 18.0.0, SVG Export Plug-In . SVG Version: 6.00 Build 0)  -->
<!DOCTYPE svg PUBLIC "-//W3C//DTD SVG 1.1//EN" "http://www.w3.org/Graphics/SVG/1.1/DTD/svg11.dtd">
<svg version="1.1" id="Слой_1" xmlns="http://www.w3.org/2000/svg" xmlns:xlink="http://www.w3.org/1999/xlink" x="0px" y="0px"
	 viewBox="0 0 32 32" enable-background="new 0 0 32 32" xml:space="preserve">
<circle fill="#FFFFFF" cx="16.3" cy="16" r="14.8"/>
<g id="Chevron_Up_Circle">
	<path fill="#121313" d="M16,0C7.2,0,0,7.2,0,16c0,8.8,7.2,16,16,16c8.8,0,16-7.2,16-16C32,7.2,24.8,0,16,0z M16,30
		C8.3,30,2,23.7,2,16S8.3,2,16,2s14,6.3,14,14S23.7,30,16,30z"/>
	<path fill="#121313" d="M16.7,11.3c-0.4-0.4-1-0.4-1.4,0l-7,6.9c-0.4,0.4-0.4,1,0,1.4c0.4,0.4,1,0.4,1.4,0l6.3-6.2l6.3,6.2
		c0.4,0.4,1,0.4,1.4,0c0.4-0.4,0.4-1,0-1.4L16.7,11.3z"/>
</g>
</svg>
